<?xml version="1.0" encoding="iso-8859-1"?>
<!-- Uploaded to: SVG Repo, www.svgrepo.com, Generator: SVG Repo Mixer Tools -->
<svg fill="#000000" height="800px" width="800px" version="1.1" id="Layer_1" xmlns="http://www.w3.org/2000/svg" xmlns:xlink="http://www.w3.org/1999/xlink" 
	 viewBox="0 0 512 512" xml:space="preserve">
<g>
	<g>
		<path d="M337.814,102.928V55.423h36.948V2.639H137.237v52.784h36.948v47.505H0v364.206h36.948v42.227H95.01v-42.227H416.99v42.227
			h58.062v-42.227H512V102.928H337.814z M153.072,39.588V18.474h205.856v21.113H153.072z M321.979,55.423v47.505H190.021V55.423
			H321.979z M79.175,493.526H52.784v-26.392h26.392V493.526z M459.216,493.526h-26.392v-26.392h26.392V493.526z M496.165,160.99
			H345.732v15.835h150.433v274.474H15.835V176.825h150.433V160.99H15.835v-42.227h480.33V160.99z"/>
	</g>
</g>
<g>
	<g>
		<path d="M311.423,229.608V160.99H200.577v68.619h-68.619v110.845h68.619v68.619h110.845v-68.619h68.619V229.608H311.423z
			 M364.206,324.619h-68.619v68.619h-79.175v-68.619h-68.619v-79.175h68.619v-68.619h79.175v68.619h68.619V324.619z"/>
	</g>
</g>
</svg>